<svg width="390" height="844" viewBox="0 0 390 844" xmlns="http://www.w3.org/2000/svg">
  <!-- Phone Frame -->
  <defs>
    <linearGradient id="phoneBg" x1="0%" y1="0%" x2="100%" y2="100%">
      <stop offset="0%" style="stop-color:#f8fafc;stop-opacity:1" />
      <stop offset="100%" style="stop-color:#f1f5f9;stop-opacity:1" />
    </linearGradient>
  </defs>
  
  <!-- Phone Background -->
  <rect width="390" height="844" rx="40" fill="#1e293b"/>
  <rect x="10" y="10" width="370" height="824" rx="30" fill="url(#phoneBg)"/>
  
  <!-- Status Bar -->
  <rect x="10" y="10" width="370" height="50" fill="#667eea"/>
  <text x="30" y="35" font-family="Arial, sans-serif" font-size="14" font-weight="bold" fill="#ffffff">9:41</text>
  <text x="340" y="35" font-family="Arial, sans-serif" font-size="14" fill="#ffffff">100%</text>
  
  <!-- Header -->
  <rect x="10" y="60" width="370" height="80" fill="#ffffff"/>
  <text x="195" y="90" font-family="Arial, sans-serif" font-size="20" font-weight="bold" text-anchor="middle" fill="#1e293b">
    FrameTheGallery
  </text>
  <text x="195" y="115" font-family="Arial, sans-serif" font-size="14" text-anchor="middle" fill="#64748b">
    Your Photo Portfolios
  </text>
  
  <!-- Add Portfolio Button -->
  <rect x="30" y="160" width="330" height="60" rx="12" fill="#667eea" stroke="#4f46e5" stroke-width="2"/>
  <text x="195" y="185" font-family="Arial, sans-serif" font-size="16" font-weight="bold" text-anchor="middle" fill="#ffffff">
    📸 Create New Portfolio
  </text>
  <text x="195" y="205" font-family="Arial, sans-serif" font-size="12" text-anchor="middle" fill="#e2e8f0">
    Up to 10 portfolios with 10 photos each
  </text>
  
  <!-- Portfolio Grid -->
  <g transform="translate(30, 240)">
    <!-- Portfolio 1 -->
    <rect x="0" y="0" width="150" height="120" rx="12" fill="#ffffff" stroke="#e2e8f0" stroke-width="1"/>
    <rect x="10" y="10" width="130" height="80" rx="8" fill="#f1f5f9"/>
    <rect x="15" y="15" width="35" height="25" rx="4" fill="#fbbf24"/>
    <rect x="55" y="15" width="35" height="25" rx="4" fill="#10b981"/>
    <rect x="95" y="15" width="35" height="25" rx="4" fill="#3b82f6"/>
    <rect x="15" y="45" width="35" height="25" rx="4" fill="#ef4444"/>
    <rect x="55" y="45" width="35" height="25" rx="4" fill="#8b5cf6"/>
    <rect x="95" y="45" width="35" height="25" rx="4" fill="#f59e0b"/>
    <text x="75" y="105" font-family="Arial, sans-serif" font-size="12" font-weight="bold" text-anchor="middle" fill="#1e293b">
      Travel Photos
    </text>
    
    <!-- Portfolio 2 -->
    <rect x="180" y="0" width="150" height="120" rx="12" fill="#ffffff" stroke="#e2e8f0" stroke-width="1"/>
    <rect x="190" y="10" width="130" height="80" rx="8" fill="#f1f5f9"/>
    <rect x="195" y="15" width="35" height="25" rx="4" fill="#06b6d4"/>
    <rect x="235" y="15" width="35" height="25" rx="4" fill="#84cc16"/>
    <rect x="275" y="15" width="35" height="25" rx="4" fill="#ec4899"/>
    <rect x="195" y="45" width="35" height="25" rx="4" fill="#14b8a6"/>
    <rect x="235" y="45" width="35" height="25" rx="4" fill="#f97316"/>
    <rect x="275" y="45" width="35" height="25" rx="4" fill="#6366f1"/>
    <text x="255" y="105" font-family="Arial, sans-serif" font-size="12" font-weight="bold" text-anchor="middle" fill="#1e293b">
      Portraits
    </text>
    
    <!-- Portfolio 3 -->
    <rect x="0" y="140" width="150" height="120" rx="12" fill="#ffffff" stroke="#e2e8f0" stroke-width="1"/>
    <rect x="10" y="150" width="130" height="80" rx="8" fill="#f1f5f9"/>
    <rect x="15" y="155" width="35" height="25" rx="4" fill="#a855f7"/>
    <rect x="55" y="155" width="35" height="25" rx="4" fill="#22c55e"/>
    <rect x="95" y="155" width="35" height="25" rx="4" fill="#f43f5e"/>
    <rect x="15" y="185" width="35" height="25" rx="4" fill="#06b6d4"/>
    <rect x="55" y="185" width="35" height="25" rx="4" fill="#eab308"/>
    <rect x="95" y="185" width="35" height="25" rx="4" fill="#3b82f6"/>
    <text x="75" y="245" font-family="Arial, sans-serif" font-size="12" font-weight="bold" text-anchor="middle" fill="#1e293b">
      Nature
    </text>
    
    <!-- Portfolio 4 -->
    <rect x="180" y="140" width="150" height="120" rx="12" fill="#ffffff" stroke="#e2e8f0" stroke-width="1"/>
    <rect x="190" y="150" width="130" height="80" rx="8" fill="#f1f5f9"/>
    <rect x="195" y="155" width="35" height="25" rx="4" fill="#dc2626"/>
    <rect x="235" y="155" width="35" height="25" rx="4" fill="#059669"/>
    <rect x="275" y="155" width="35" height="25" rx="4" fill="#7c3aed"/>
    <rect x="195" y="185" width="35" height="25" rx="4" fill="#ea580c"/>
    <rect x="235" y="185" width="35" height="25" rx="4" fill="#0891b2"/>
    <rect x="275" y="185" width="35" height="25" rx="4" fill="#be185d"/>
    <text x="255" y="245" font-family="Arial, sans-serif" font-size="12" font-weight="bold" text-anchor="middle" fill="#1e293b">
      Street Art
    </text>
  </g>
  
  <!-- Stats Bar -->
  <rect x="30" y="520" width="330" height="60" rx="12" fill="#f8fafc" stroke="#e2e8f0" stroke-width="1"/>
  <text x="195" y="540" font-family="Arial, sans-serif" font-size="14" font-weight="bold" text-anchor="middle" fill="#475569">
    Portfolio Stats
  </text>
  <text x="100" y="560" font-family="Arial, sans-serif" font-size="12" text-anchor="middle" fill="#64748b">
    4/10 Portfolios
  </text>
  <text x="290" y="560" font-family="Arial, sans-serif" font-size="12" text-anchor="middle" fill="#64748b">
    24 Total Photos
  </text>
  
  <!-- Bottom Navigation -->
  <rect x="10" y="750" width="370" height="84" fill="#ffffff" stroke="#e2e8f0" stroke-width="1"/>
  <g transform="translate(50, 770)">
    <!-- Home -->
    <rect x="0" y="0" width="60" height="44" rx="8" fill="#667eea"/>
    <text x="30" y="25" font-family="Arial, sans-serif" font-size="20" text-anchor="middle" fill="#ffffff">🏠</text>
    <text x="30" y="40" font-family="Arial, sans-serif" font-size="10" text-anchor="middle" fill="#ffffff">Home</text>
    
    <!-- Gallery -->
    <rect x="90" y="0" width="60" height="44" rx="8" fill="#f1f5f9"/>
    <text x="120" y="25" font-family="Arial, sans-serif" font-size="20" text-anchor="middle" fill="#64748b">📸</text>
    <text x="120" y="40" font-family="Arial, sans-serif" font-size="10" text-anchor="middle" fill="#64748b">Gallery</text>
    
    <!-- Share -->
    <rect x="180" y="0" width="60" height="44" rx="8" fill="#f1f5f9"/>
    <text x="210" y="25" font-family="Arial, sans-serif" font-size="20" text-anchor="middle" fill="#64748b">📤</text>
    <text x="210" y="40" font-family="Arial, sans-serif" font-size="10" text-anchor="middle" fill="#64748b">Share</text>
  </g>
</svg>
